<?xml version="1.0" encoding="utf-8"?>
<!-- Generator: Adobe Illustrator 26.4.1, SVG Export Plug-In . SVG Version: 6.00 Build 0)  -->
<svg version="1.1" id="Layer_1" xmlns="http://www.w3.org/2000/svg" xmlns:xlink="http://www.w3.org/1999/xlink" x="0px" y="0px"
	 viewBox="0 0 3430 1104" style="enable-background:new 0 0 3430 1104;" xml:space="preserve">
<style type="text/css">
	.st0{fill:#FFFFFF;}
</style>
<g>
	<path class="st0" d="M1081.9,400c1,3,2,6.1,3,9.1c1.2,13,3.9,25.7,8.9,37.8c8.5,65.2,11,130,1.3,195.7
		c-34.4,232-238.2,430.2-470.7,457.2c-65.1,7.5-129.3,4.8-193.5-6.9c-22.3-6.4-44.6-12.8-66.9-19.2c-70-27.1-134.2-63.8-189.1-115.6
		c-6.2-5.9-14.2-10.5-17.4-20c203.4,16.8,383.2-34.5,551.9-154.1c81.6-60.4,180.6-154,246.5-215.9c0.3-0.3-0.3-1.4-0.7-3.4
		c-13-3.8-25.2-1.1-36.6,6.4c-19.1,12.5-38.5,24.6-57.1,37.8c-10.2,7.2-20.2,10.1-32.8,9.1c-85.2-6.7-170.4-12.5-255.6-19.2
		c-20.7-1.6-38.1,5.3-58.7,15.7c93.4,21,166.5,36.2,256.4,56.4c-31.1,27.1-96.1,90-239.5,142c-85.2,23.9-167.6,37.9-255.7,25.7
		c-87.5-12.1-163.3-47-221.7-115.3c-14.7-21.8-27.4-44.7-38.5-68.4C-40.6,439.6,60.5,203,261.1,81C381.4,7.9,511.3-14.8,649.7,9.1
		c5,0.9,10.2,1,15.3,1.4c26.3,7.9,52.6,15.8,79,23.7c158.4,63.6,267.2,175.8,328.1,334.9C1073.6,380,1077,390.3,1081.9,400z
		 M856,688.5c-38.1,37.9-56.3,50.3-57.5,60.3c-3.8,31.8-8.2,63.5-12.9,99.4c14.4-14,27.3-23.9,32.5-39.9c12.8-40,25.2-80,37.7-120.1
		l0.4-1L856,688.5z"/>
	<g>
		<g>
			<path class="st0" d="M1475.2,120.8c-52.4,33.4-77.7,73.2-77.7,121.9c0,19.9,4.5,42.4,12.6,67.7l42.5,128.3
				c9.9,31.6,16.3,64.1,16.3,93c0,70.4-40.6,138.2-106.6,177.9l-26.2-43.4c55.1-37,81.3-83.1,81.3-141.8c0-19.9-3.6-41.5-11.7-64.1
				L1365,334.9c-13.6-39.7-17.2-59.6-17.2-88.5c0-71.4,34.3-128.3,103-168.9L1475.2,120.8z"/>
			<path class="st0" d="M1590.8,694.3h-51.5V133.5c-18.1,4.5-28,8.1-46.1,19V99.1c27.1-10.8,48.8-16.3,73.2-16.3s45.2,5.4,71.4,16.3
				v53.3c-19-10.8-28.9-14.5-47-19V694.3z"/>
			<path class="st0" d="M1697.4,507.4v187h-51.5V335.8c0-94.8,23.5-169.8,78.6-258.3c55.1,86.7,78.6,164.4,78.6,258.3v358.6h-51.5
				v-187H1697.4z M1751.6,335.8c0-53.3-8.1-102.1-27.1-148.1c-19,48.8-27.1,93.9-27.1,148.1v123.7h54.2V335.8z"/>
			<path class="st0" d="M1908.8,694.3h-51.5V77.5c102.1,47.9,161.7,138.2,161.7,245.7c0,68.6-23.5,127.3-74.1,180.6
				c62.3,46.1,93,106.6,95.8,190.6h-51.5c-0.9-65.9-28-120.1-80.4-158.1V694.3z M1967.5,324c0-56-19.9-108.4-58.7-149.9v297.1
				C1946.7,432.4,1967.5,379.1,1967.5,324z"/>
			<path class="st0" d="M2180.7,91.9l5.4,47.9h-56.9v199.6h60.5v47.9h-60.5v307.1h-51.5V91.9H2180.7z"/>
			<path class="st0" d="M2281,91.9v602.4h-51.5V91.9H2281z"/>
			<path class="st0" d="M2433.6,387.3h51.5v322.4c-103-74.1-162.6-189.7-162.6-316.1c0-122.8,56.9-234.8,160.8-316.1l11.7,56.9
				c-79.5,69.5-121.1,157.2-121.1,254.7c0,70.4,19,131.9,59.6,197.8V387.3z"/>
			<path class="st0" d="M2595.3,91.9v247.5h54.2V91.9h51.5v602.4h-51.5V387.3h-54.2v307.1h-51.5V91.9H2595.3z"/>
			<path class="st0" d="M2834.7,694.3h-51.5V133.5c-18.1,4.5-28,8.1-46.1,19V99.1c27.1-10.8,48.8-16.3,73.2-16.3
				c24.4,0,45.2,5.4,71.4,16.3v53.3c-19-10.8-28.9-14.5-47-19V694.3z"/>
			<path class="st0" d="M3019.9,91.9l5.4,47.9h-56.9v199.6h69.6v47.9h-69.6v259.2h69.6v47.9h-121V91.9H3019.9z"/>
			<path class="st0" d="M3140,694.3h-51.5V77.5c102.1,47.9,161.7,138.2,161.7,245.7c0,68.6-23.5,127.3-74.1,180.6
				c62.3,46.1,93,106.6,95.8,190.6h-51.5c-0.9-65.9-28-120.1-80.4-158.1V694.3z M3198.7,324c0-56-19.9-108.4-58.7-149.9v297.1
				C3178,432.4,3198.7,379.1,3198.7,324z"/>
			<path class="st0" d="M3430,120.8c-52.4,33.4-77.7,73.2-77.7,121.9c0,19.9,4.5,42.4,12.6,67.7l42.5,128.3
				c9.9,31.6,16.3,64.1,16.3,93c0,70.4-40.6,138.2-106.6,177.9l-26.2-43.4c55.1-37,81.3-83.1,81.3-141.8c0-19.9-3.6-41.5-11.7-64.1
				l-40.7-125.5c-13.5-39.7-17.2-59.6-17.2-88.5c0-71.4,34.3-128.3,103-168.9L3430,120.8z"/>
		</g>
	</g>
	<g>
		<path class="st0" d="M1329.3,1040.8l32.5-39c22.5,18.6,46.1,30.4,74.7,30.4c22.5,0,36.1-8.9,36.1-23.6v-0.7
			c0-13.9-8.6-21.1-50.4-31.8c-50.4-12.9-82.9-26.8-82.9-76.5v-0.7c0-45.4,36.5-75.4,87.6-75.4c36.5,0,67.6,11.4,92.9,31.8
			l-28.6,41.5c-22.2-15.4-44-24.7-65.1-24.7c-21.1,0-32.2,9.6-32.2,21.8v0.7c0,16.4,10.7,21.8,54,32.9
			c50.8,13.2,79.4,31.4,79.4,75.1v0.7c0,49.7-37.9,77.5-91.9,77.5C1397.6,1080.8,1359.3,1067.6,1329.3,1040.8z"/>
		<path class="st0" d="M1796.9,827h102.2c59.7,0,95.8,35.4,95.8,86.5v0.7c0,57.9-45,87.9-101.2,87.9h-41.8v75.1h-55V827z
			 M1895.5,953.2c27.5,0,43.6-16.4,43.6-37.9v-0.7c0-24.7-17.2-37.9-44.7-37.9h-42.5v76.5H1895.5z"/>
		<path class="st0" d="M2318.1,825.3h50.8l107.2,252h-57.5l-22.9-56.1h-105.8l-22.9,56.1h-56.1L2318.1,825.3z M2376,972.5
			l-33.2-81.1l-33.2,81.1H2376z"/>
		<path class="st0" d="M2709.2,952.8v-0.7c0-71.1,53.6-129.4,130.5-129.4c47.2,0,75.4,15.7,98.7,38.6l-35,40.4
			c-19.3-17.5-39-28.2-64-28.2c-42.2,0-72.6,35-72.6,77.9v0.7c0,42.9,29.7,78.6,72.6,78.6c28.6,0,46.1-11.4,65.8-29.3l35,35.4
			c-25.7,27.5-54.3,44.7-102.6,44.7C2763.9,1081.5,2709.2,1024.7,2709.2,952.8z"/>
		<path class="st0" d="M3205.8,827h188.7v49h-134v50.7h118v49h-118v52.5h135.8v49h-190.5V827z"/>
	</g>
</g>
</svg>
